<svg width="24" height="24" viewBox="0 0 24 24" fill="none" xmlns="http://www.w3.org/2000/svg">
<path d="M10.74 11.72C11.21 12.95 11.16 14.23 9.74998 14.74C6.84998 15.81 6.19998 13 6.15998 12.86L10.74 11.72M5.70998 10.91L10.03 9.84004C9.83998 8.79004 10.13 7.74004 10.13 6.50004C10.13 4.82004 8.79998 1.53004 6.67998 2.06004C4.25998 2.66004 3.90998 5.35004 3.99998 6.65004C4.11998 7.95004 5.63998 10.73 5.70998 10.91M17.85 19.85C17.82 20 17.16 22.8 14.26 21.74C12.86 21.22 12.8 19.94 13.27 18.71L17.85 19.85ZM20 13.65C20.1 12.35 19.76 9.65004 17.33 9.05004C15.22 8.50004 13.89 11.81 13.89 13.5C13.89 14.73 14.17 15.78 14 16.83L18.3 17.9C18.38 17.72 19.89 14.94 20 13.65V13.65Z" fill="black"/>
</svg>
